<svg width="198" height="38" viewBox="0 0 198 38" fill="none" xmlns="http://www.w3.org/2000/svg">
<g clip-path="url(#clip0_205_2)">
<g filter="url(#filter0_d_205_2)">
<path d="M3.71927 16.6634C3.56493 16.0876 3.56491 15.4813 3.7192 14.9054C3.8735 14.3296 4.17666 13.8045 4.59824 13.3829L13.3827 4.59843C13.8043 4.17686 14.3294 3.8737 14.9052 3.71941C15.481 3.56511 16.0874 3.56513 16.6632 3.71947L23.4022 5.52517C24.1717 5.73136 24.9335 5.17782 25.1869 4.42256C25.4692 3.58105 25.103 2.55047 24.2457 2.32077L16.1165 0.142792C15.4059 -0.0476013 14.6577 -0.0475974 13.9471 0.142804C13.2364 0.333207 12.5884 0.707299 12.0682 1.22749L1.22748 12.0682C0.707298 12.5885 0.333204 13.2364 0.142806 13.9471C-0.0475969 14.6577 -0.0476032 15.4059 0.142794 16.1165L2.40716 24.5672C2.64087 25.4394 3.70399 25.8002 4.55345 25.494C5.28655 25.2297 5.81431 24.4817 5.61261 23.729L3.71927 16.6634Z" fill="url(#paint0_linear_205_2)"/>
<path d="M33.3152 12.1961C32.6044 12.4702 32.1017 13.2041 32.2989 13.9399L34.2808 21.3361C34.4352 21.9121 34.435 22.5183 34.2808 23.094C34.1264 23.67 33.8232 24.195 33.4016 24.6166L24.6171 33.4013C24.1955 33.8228 23.6705 34.1259 23.0946 34.2803C22.5188 34.4345 21.9124 34.4345 21.3366 34.2803L14.271 32.3869C13.5183 32.1852 12.7704 32.713 12.5061 33.4461C12.1999 34.2955 12.5607 35.3587 13.4329 35.5924L21.8835 37.8567C22.5941 38.0472 23.3423 38.0472 24.0529 37.8567C24.7637 37.6663 25.4115 37.2923 25.9318 36.772L36.7726 25.9313C37.2928 25.411 37.6668 24.7631 37.8572 24.0524C38.0477 23.3418 38.0477 22.5935 37.8572 21.883L35.5051 13.1072C35.2675 12.2207 34.1715 11.8658 33.3152 12.1961Z" fill="url(#paint1_linear_205_2)"/>
<path d="M1.78219 30.3635C1.97427 29.3979 2.44841 28.5107 3.14464 27.8146C4.07895 26.8824 5.3449 26.3588 6.66473 26.3588C7.98456 26.3588 9.25051 26.8824 10.1848 27.8146C10.8811 28.5107 11.3552 29.3979 11.5473 30.3635C11.7394 31.3292 11.6408 32.3302 11.264 33.2399C10.8872 34.1494 10.2492 34.9269 9.43047 35.474C8.61182 36.0209 7.64932 36.313 6.66473 36.313C5.68012 36.313 4.71765 36.0209 3.89897 35.474C3.08032 34.9269 2.44225 34.1494 2.06547 33.2399C1.68868 32.3302 1.59009 31.3292 1.78219 30.3635Z" fill="url(#paint2_linear_205_2)"/>
<path d="M27.5572 2.88788C26.8611 3.58409 26.3868 4.47112 26.1949 5.4368C26.0027 6.40247 26.1013 7.40343 26.4781 8.31309C26.8549 9.22273 27.4929 10.0003 28.3115 10.5473C29.1302 11.0943 30.0927 11.3863 31.0772 11.3863C32.0619 11.3863 33.0244 11.0943 33.8432 10.5473C34.6617 10.0003 35.2997 9.22273 35.6765 8.31309C36.0533 7.40343 36.1519 6.40247 35.9598 5.4368C35.7678 4.47112 35.2935 3.58409 34.5974 2.88788C33.6632 1.95567 32.3971 1.43213 31.0772 1.43213C29.7575 1.43213 28.4914 1.95567 27.5572 2.88788Z" fill="url(#paint3_linear_205_2)"/>
<path d="M21.33 32.1179C21.5232 32.1696 21.7221 32.1958 21.9221 32.1958C22.2226 32.1966 22.5203 32.1379 22.7979 32.0229C23.0756 31.908 23.3279 31.739 23.5398 31.5261L31.5247 23.5412C31.8084 23.2567 32.0122 22.903 32.1161 22.515C32.2202 22.1273 32.2204 21.7189 32.1172 21.3308L30.5476 15.4719C30.363 14.7828 30.2707 14.4382 30.139 14.2039C29.9775 13.9167 29.9398 13.87 29.6931 13.6517C29.4918 13.4735 28.9519 13.1966 27.8722 12.6427C27.2885 12.3433 26.7466 11.9616 26.2641 11.5063C25.7478 11.019 25.3117 10.4588 24.9677 9.84684C24.4095 8.85377 24.1303 8.35723 23.9554 8.16982C23.7419 7.94121 23.6945 7.90442 23.4201 7.75422C23.1952 7.6311 22.8703 7.54403 22.2205 7.36991L16.6693 5.88246C16.2813 5.77846 15.8728 5.77844 15.4847 5.8824C15.0967 5.98637 14.7429 6.19063 14.4589 6.47469L6.47395 14.4598C6.19045 14.7442 5.98655 15.0979 5.88262 15.4858C5.77868 15.8737 5.7784 16.282 5.88173 16.67L7.40948 22.3714C7.5889 23.041 7.67862 23.3758 7.80608 23.6055C7.96198 23.8864 7.99913 23.9333 8.23689 24.1494C8.43127 24.326 8.94974 24.6045 9.98667 25.1614C10.5851 25.4827 11.1368 25.8913 11.6225 26.377C12.1082 26.8627 12.5168 27.4144 12.8382 28.0129C13.3949 29.0497 13.6732 29.568 13.8499 29.7624C14.0659 30.0002 14.1129 30.0374 14.3938 30.1933C14.6235 30.3208 14.9583 30.4105 15.6278 30.5899L21.33 32.1179Z" fill="url(#paint4_linear_205_2)"/>
</g>
<path d="M24.306 22.245C24.306 24.6099 22.5911 25.7924 19.1613 25.7924C16.982 25.7924 15.4343 25.359 14.518 24.4923C13.6017 23.6132 13.1436 22.344 13.1436 20.6848H14.9452C14.9452 22.0469 15.2857 22.9817 15.9667 23.4894C16.6601 23.9846 17.7373 24.2323 19.1984 24.2323C20.3128 24.2323 21.1424 24.0837 21.6872 23.7865C22.232 23.4894 22.5044 23.0003 22.5044 22.3193C22.5044 22.0716 22.4673 21.8487 22.393 21.6506C22.3311 21.4401 22.2011 21.2544 22.0029 21.0934C21.8172 20.9201 21.6501 20.7777 21.5015 20.6663C21.3653 20.5548 21.1238 20.4372 20.7771 20.3134C20.4428 20.1772 20.1952 20.0843 20.0342 20.0348C19.8856 19.9729 19.5885 19.88 19.1427 19.7562C18.7093 19.62 18.4245 19.5333 18.2883 19.4962C17.6692 19.3104 17.1678 19.1495 16.7839 19.0133C16.4125 18.8771 16.0101 18.6975 15.5767 18.4746C15.1433 18.2518 14.809 18.0165 14.5737 17.7689C14.3385 17.5212 14.1404 17.2179 13.9794 16.8588C13.8184 16.4873 13.738 16.0725 13.738 15.6144C13.738 13.4228 15.3167 12.327 18.4741 12.327C20.2695 12.327 21.6005 12.7665 22.4673 13.6457C23.334 14.5248 23.7674 15.5896 23.7674 16.8402H21.9658C21.9658 15.8497 21.6377 15.1129 20.9814 14.63C20.3376 14.1347 19.5018 13.8871 18.4741 13.8871C16.5177 13.8871 15.5395 14.4567 15.5395 15.5958C15.5395 16.1654 15.7624 16.605 16.2082 16.9145C16.6663 17.2117 17.4835 17.5522 18.6598 17.936C20.3438 18.4685 21.452 18.8647 21.9844 19.1247C23.5321 19.8924 24.306 20.9325 24.306 22.245Z" fill="white"/>
<path d="M47.736 20.296V24.904C47.56 24.952 47.28 25 46.896 25.048C46.528 25.096 46.16 25.12 45.792 25.12C45.424 25.12 45.096 25.088 44.808 25.024C44.536 24.976 44.304 24.88 44.112 24.736C43.936 24.592 43.8 24.392 43.704 24.136C43.608 23.88 43.56 23.544 43.56 23.128V11.824C43.56 11.488 43.648 11.232 43.824 11.056C44.016 10.864 44.272 10.712 44.592 10.6C45.136 10.408 45.768 10.272 46.488 10.192C47.208 10.096 47.976 10.048 48.792 10.048C51 10.048 52.664 10.512 53.784 11.44C54.904 12.368 55.464 13.624 55.464 15.208C55.464 16.2 55.208 17.048 54.696 17.752C54.184 18.456 53.576 19 52.872 19.384C53.448 20.168 54.016 20.904 54.576 21.592C55.136 22.28 55.576 22.904 55.896 23.464C55.736 24.024 55.44 24.456 55.008 24.76C54.592 25.048 54.12 25.192 53.592 25.192C53.24 25.192 52.936 25.152 52.68 25.072C52.424 24.992 52.2 24.88 52.008 24.736C51.816 24.592 51.64 24.416 51.48 24.208C51.32 24 51.168 23.776 51.024 23.536L49.008 20.296H47.736ZM49.248 17.104C49.856 17.104 50.336 16.952 50.688 16.648C51.04 16.328 51.216 15.864 51.216 15.256C51.216 14.648 51.016 14.192 50.616 13.888C50.232 13.568 49.616 13.408 48.768 13.408C48.528 13.408 48.336 13.416 48.192 13.432C48.048 13.448 47.888 13.472 47.712 13.504V17.104H49.248ZM57.777 10.096C57.777 9.488 57.977 8.976 58.377 8.56C58.793 8.144 59.337 7.936 60.009 7.936C60.681 7.936 61.217 8.144 61.617 8.56C62.033 8.976 62.241 9.488 62.241 10.096C62.241 10.704 62.033 11.216 61.617 11.632C61.217 12.048 60.681 12.256 60.009 12.256C59.337 12.256 58.793 12.048 58.377 11.632C57.977 11.216 57.777 10.704 57.777 10.096ZM62.049 24.976C61.873 25.008 61.609 25.048 61.257 25.096C60.921 25.16 60.577 25.192 60.225 25.192C59.873 25.192 59.553 25.168 59.265 25.12C58.993 25.072 58.761 24.976 58.569 24.832C58.377 24.688 58.225 24.496 58.113 24.256C58.017 24 57.969 23.672 57.969 23.272V13.504C58.145 13.472 58.401 13.432 58.737 13.384C59.089 13.32 59.441 13.288 59.793 13.288C60.145 13.288 60.457 13.312 60.729 13.36C61.017 13.408 61.257 13.504 61.449 13.648C61.641 13.792 61.785 13.992 61.881 14.248C61.993 14.488 62.049 14.808 62.049 15.208V24.976ZM72.4464 24.688C72.2224 24.864 71.8944 25.008 71.4624 25.12C71.0304 25.232 70.5424 25.288 69.9984 25.288C69.3744 25.288 68.8304 25.208 68.3664 25.048C67.9184 24.888 67.6064 24.632 67.4304 24.28C67.2864 24.008 67.1104 23.632 66.9024 23.152C66.7104 22.656 66.5024 22.112 66.2784 21.52C66.0544 20.912 65.8224 20.264 65.5824 19.576C65.3424 18.888 65.1104 18.208 64.8864 17.536C64.6784 16.864 64.4864 16.216 64.3104 15.592C64.1344 14.968 63.9904 14.416 63.8784 13.936C64.1024 13.712 64.3984 13.52 64.7664 13.36C65.1504 13.184 65.5664 13.096 66.0144 13.096C66.5744 13.096 67.0304 13.216 67.3824 13.456C67.7504 13.68 68.0224 14.112 68.1984 14.752L69.1344 18.424C69.3104 19.144 69.4784 19.8 69.6384 20.392C69.7984 20.968 69.9184 21.416 69.9984 21.736H70.1184C70.4224 20.552 70.7424 19.24 71.0784 17.8C71.4144 16.36 71.7184 14.944 71.9904 13.552C72.2624 13.408 72.5664 13.296 72.9024 13.216C73.2544 13.136 73.5904 13.096 73.9104 13.096C74.4704 13.096 74.9424 13.216 75.3264 13.456C75.7104 13.696 75.9024 14.112 75.9024 14.704C75.9024 14.96 75.8384 15.336 75.7104 15.832C75.5984 16.312 75.4464 16.864 75.2544 17.488C75.0784 18.096 74.8624 18.744 74.6064 19.432C74.3664 20.12 74.1184 20.792 73.8624 21.448C73.6064 22.104 73.3504 22.72 73.0944 23.296C72.8544 23.856 72.6384 24.32 72.4464 24.688ZM82.4822 22.408C82.7542 22.408 83.0502 22.384 83.3702 22.336C83.7062 22.272 83.9542 22.192 84.1142 22.096V20.176L82.3862 20.32C81.9382 20.352 81.5702 20.448 81.2822 20.608C80.9942 20.768 80.8502 21.008 80.8502 21.328C80.8502 21.648 80.9702 21.912 81.2102 22.12C81.4662 22.312 81.8902 22.408 82.4822 22.408ZM82.2902 12.976C83.1542 12.976 83.9382 13.064 84.6422 13.24C85.3622 13.416 85.9702 13.688 86.4662 14.056C86.9782 14.408 87.3702 14.864 87.6422 15.424C87.9142 15.968 88.0502 16.616 88.0502 17.368V22.744C88.0502 23.16 87.9302 23.504 87.6902 23.776C87.4662 24.032 87.1942 24.256 86.8742 24.448C85.8342 25.072 84.3702 25.384 82.4822 25.384C81.6342 25.384 80.8662 25.304 80.1782 25.144C79.5062 24.984 78.9222 24.744 78.4262 24.424C77.9462 24.104 77.5702 23.696 77.2982 23.2C77.0422 22.704 76.9142 22.128 76.9142 21.472C76.9142 20.368 77.2422 19.52 77.8982 18.928C78.5542 18.336 79.5702 17.968 80.9462 17.824L84.0902 17.488V17.32C84.0902 16.856 83.8822 16.528 83.4662 16.336C83.0662 16.128 82.4822 16.024 81.7142 16.024C81.1062 16.024 80.5142 16.088 79.9382 16.216C79.3622 16.344 78.8422 16.504 78.3782 16.696C78.1702 16.552 77.9942 16.336 77.8502 16.048C77.7062 15.744 77.6342 15.432 77.6342 15.112C77.6342 14.696 77.7302 14.368 77.9222 14.128C78.1302 13.872 78.4422 13.656 78.8582 13.48C79.3222 13.304 79.8662 13.176 80.4902 13.096C81.1302 13.016 81.7302 12.976 82.2902 12.976ZM94.6969 24.976C94.5209 25.008 94.2569 25.048 93.9049 25.096C93.5689 25.16 93.2249 25.192 92.8729 25.192C92.5209 25.192 92.2009 25.168 91.9129 25.12C91.6409 25.072 91.4089 24.976 91.2169 24.832C91.0249 24.688 90.8729 24.496 90.7609 24.256C90.6649 24 90.6169 23.672 90.6169 23.272V9.352C90.7929 9.32 91.0489 9.28 91.3849 9.232C91.7369 9.168 92.0889 9.136 92.4409 9.136C92.7929 9.136 93.1049 9.16 93.3769 9.208C93.6649 9.256 93.9049 9.352 94.0969 9.496C94.2889 9.64 94.4329 9.84 94.5289 10.096C94.6409 10.336 94.6969 10.656 94.6969 11.056V24.976ZM101.711 19.216C101.007 18.976 100.367 18.736 99.7914 18.496C99.2154 18.24 98.7194 17.936 98.3034 17.584C97.8874 17.232 97.5594 16.816 97.3194 16.336C97.0954 15.84 96.9834 15.24 96.9834 14.536C96.9834 13.176 97.5034 12.088 98.5434 11.272C99.5994 10.456 101.071 10.048 102.959 10.048C103.647 10.048 104.287 10.096 104.879 10.192C105.471 10.288 105.975 10.44 106.391 10.648C106.823 10.84 107.159 11.096 107.399 11.416C107.639 11.72 107.759 12.08 107.759 12.496C107.759 12.912 107.663 13.272 107.471 13.576C107.279 13.864 107.047 14.112 106.775 14.32C106.423 14.096 105.951 13.904 105.359 13.744C104.767 13.568 104.119 13.48 103.415 13.48C102.695 13.48 102.167 13.584 101.831 13.792C101.495 13.984 101.327 14.232 101.327 14.536C101.327 14.776 101.431 14.976 101.639 15.136C101.847 15.28 102.159 15.416 102.575 15.544L103.847 15.952C105.351 16.432 106.503 17.048 107.303 17.8C108.119 18.536 108.527 19.544 108.527 20.824C108.527 22.184 107.991 23.288 106.919 24.136C105.847 24.968 104.271 25.384 102.191 25.384C101.455 25.384 100.767 25.32 100.127 25.192C99.5034 25.08 98.9514 24.912 98.4714 24.688C98.0074 24.448 97.6394 24.16 97.3674 23.824C97.1114 23.472 96.9834 23.072 96.9834 22.624C96.9834 22.16 97.1194 21.768 97.3914 21.448C97.6634 21.112 97.9594 20.856 98.2794 20.68C98.7274 21.032 99.2714 21.336 99.9114 21.592C100.567 21.848 101.279 21.976 102.047 21.976C102.831 21.976 103.383 21.856 103.703 21.616C104.023 21.376 104.183 21.096 104.183 20.776C104.183 20.456 104.055 20.216 103.799 20.056C103.543 19.88 103.183 19.712 102.719 19.552L101.711 19.216ZM122.609 19.168C122.609 20.16 122.457 21.048 122.153 21.832C121.849 22.6 121.417 23.248 120.857 23.776C120.313 24.304 119.657 24.704 118.889 24.976C118.121 25.248 117.265 25.384 116.321 25.384C115.377 25.384 114.521 25.24 113.753 24.952C112.985 24.664 112.321 24.256 111.761 23.728C111.217 23.184 110.793 22.528 110.489 21.76C110.185 20.992 110.033 20.128 110.033 19.168C110.033 18.224 110.185 17.368 110.489 16.6C110.793 15.832 111.217 15.184 111.761 14.656C112.321 14.112 112.985 13.696 113.753 13.408C114.521 13.12 115.377 12.976 116.321 12.976C117.265 12.976 118.121 13.128 118.889 13.432C119.657 13.72 120.313 14.136 120.857 14.68C121.417 15.208 121.849 15.856 122.153 16.624C122.457 17.392 122.609 18.24 122.609 19.168ZM114.209 19.168C114.209 20.144 114.393 20.896 114.761 21.424C115.145 21.936 115.673 22.192 116.345 22.192C117.017 22.192 117.529 21.928 117.881 21.4C118.249 20.872 118.433 20.128 118.433 19.168C118.433 18.208 118.249 17.472 117.881 16.96C117.513 16.432 116.993 16.168 116.321 16.168C115.649 16.168 115.129 16.432 114.761 16.96C114.393 17.472 114.209 18.208 114.209 19.168ZM124.648 13.336C124.648 12.52 124.784 11.824 125.056 11.248C125.344 10.656 125.728 10.176 126.208 9.808C126.688 9.424 127.248 9.144 127.888 8.968C128.544 8.792 129.24 8.704 129.976 8.704C131.16 8.704 132.032 8.864 132.592 9.184C133.152 9.488 133.432 10.016 133.432 10.768C133.432 11.088 133.36 11.376 133.216 11.632C133.088 11.888 132.944 12.08 132.784 12.208C132.48 12.128 132.16 12.064 131.824 12.016C131.504 11.952 131.128 11.92 130.696 11.92C130.008 11.92 129.472 12.04 129.088 12.28C128.704 12.504 128.512 12.904 128.512 13.48V14.248H132.448C132.544 14.424 132.632 14.648 132.712 14.92C132.808 15.176 132.856 15.464 132.856 15.784C132.856 16.344 132.728 16.752 132.472 17.008C132.232 17.248 131.904 17.368 131.488 17.368H128.728V24.976C128.568 25.024 128.312 25.072 127.96 25.12C127.624 25.168 127.272 25.192 126.904 25.192C126.552 25.192 126.232 25.168 125.944 25.12C125.672 25.072 125.44 24.976 125.248 24.832C125.056 24.688 124.904 24.496 124.792 24.256C124.696 24 124.648 23.672 124.648 23.272V13.336ZM138.875 20.992C138.875 21.408 139.003 21.704 139.259 21.88C139.531 22.056 139.907 22.144 140.387 22.144C140.627 22.144 140.875 22.128 141.131 22.096C141.387 22.048 141.611 21.992 141.803 21.928C141.947 22.104 142.067 22.304 142.163 22.528C142.275 22.736 142.331 22.992 142.331 23.296C142.331 23.904 142.099 24.4 141.635 24.784C141.187 25.168 140.387 25.36 139.235 25.36C137.827 25.36 136.739 25.04 135.971 24.4C135.219 23.76 134.843 22.72 134.843 21.28V11.008C135.019 10.96 135.267 10.912 135.587 10.864C135.923 10.8 136.275 10.768 136.643 10.768C137.347 10.768 137.891 10.896 138.275 11.152C138.675 11.392 138.875 11.912 138.875 12.712V14.248H142.019C142.115 14.424 142.203 14.648 142.283 14.92C142.379 15.176 142.427 15.464 142.427 15.784C142.427 16.344 142.299 16.752 142.043 17.008C141.803 17.248 141.475 17.368 141.059 17.368H138.875V20.992ZM151.052 24.64C150.828 24.832 150.524 24.984 150.14 25.096C149.756 25.224 149.3 25.288 148.772 25.288C148.116 25.288 147.548 25.192 147.068 25C146.588 24.824 146.268 24.568 146.108 24.232C145.932 23.848 145.724 23.24 145.484 22.408C145.26 21.576 145.036 20.664 144.812 19.672C144.588 18.68 144.372 17.672 144.164 16.648C143.972 15.624 143.82 14.72 143.708 13.936C143.932 13.712 144.228 13.52 144.596 13.36C144.98 13.184 145.396 13.096 145.844 13.096C146.404 13.096 146.86 13.224 147.212 13.48C147.58 13.72 147.804 14.144 147.884 14.752C148.044 15.968 148.18 16.976 148.292 17.776C148.404 18.56 148.492 19.208 148.556 19.72C148.636 20.216 148.692 20.6 148.724 20.872C148.772 21.128 148.812 21.336 148.844 21.496H148.94C148.988 21.24 149.068 20.872 149.18 20.392C149.308 19.896 149.452 19.336 149.612 18.712C149.772 18.088 149.94 17.416 150.116 16.696C150.292 15.96 150.468 15.232 150.644 14.512C150.964 14.336 151.276 14.2 151.58 14.104C151.9 14.008 152.292 13.96 152.756 13.96C153.316 13.96 153.796 14.048 154.196 14.224C154.596 14.4 154.852 14.672 154.964 15.04C155.156 15.744 155.34 16.432 155.516 17.104C155.692 17.76 155.852 18.376 155.996 18.952C156.14 19.512 156.268 20.016 156.38 20.464C156.492 20.896 156.572 21.24 156.62 21.496H156.74C156.916 20.264 157.084 18.984 157.244 17.656C157.42 16.328 157.58 14.976 157.724 13.6C158.012 13.424 158.316 13.296 158.636 13.216C158.956 13.136 159.276 13.096 159.596 13.096C160.156 13.096 160.62 13.216 160.988 13.456C161.356 13.696 161.54 14.112 161.54 14.704C161.54 14.96 161.5 15.344 161.42 15.856C161.34 16.368 161.236 16.944 161.108 17.584C160.98 18.224 160.828 18.896 160.652 19.6C160.492 20.304 160.324 20.984 160.148 21.64C159.988 22.296 159.828 22.888 159.668 23.416C159.524 23.944 159.396 24.352 159.284 24.64C159.06 24.832 158.716 24.984 158.252 25.096C157.788 25.224 157.292 25.288 156.764 25.288C155.42 25.288 154.628 24.952 154.388 24.28C154.292 23.992 154.172 23.632 154.028 23.2C153.884 22.752 153.732 22.264 153.572 21.736C153.412 21.208 153.26 20.664 153.116 20.104C152.972 19.528 152.852 18.976 152.756 18.448C152.644 19.008 152.508 19.592 152.348 20.2C152.188 20.792 152.02 21.376 151.844 21.952C151.684 22.512 151.532 23.032 151.388 23.512C151.244 23.976 151.132 24.352 151.052 24.64ZM168.381 22.408C168.653 22.408 168.949 22.384 169.269 22.336C169.605 22.272 169.853 22.192 170.013 22.096V20.176L168.285 20.32C167.837 20.352 167.469 20.448 167.181 20.608C166.893 20.768 166.749 21.008 166.749 21.328C166.749 21.648 166.869 21.912 167.109 22.12C167.365 22.312 167.789 22.408 168.381 22.408ZM168.189 12.976C169.053 12.976 169.837 13.064 170.541 13.24C171.261 13.416 171.869 13.688 172.365 14.056C172.877 14.408 173.269 14.864 173.541 15.424C173.813 15.968 173.949 16.616 173.949 17.368V22.744C173.949 23.16 173.829 23.504 173.589 23.776C173.365 24.032 173.093 24.256 172.773 24.448C171.733 25.072 170.269 25.384 168.381 25.384C167.533 25.384 166.765 25.304 166.077 25.144C165.405 24.984 164.821 24.744 164.325 24.424C163.845 24.104 163.469 23.696 163.197 23.2C162.941 22.704 162.813 22.128 162.813 21.472C162.813 20.368 163.141 19.52 163.797 18.928C164.453 18.336 165.469 17.968 166.845 17.824L169.989 17.488V17.32C169.989 16.856 169.781 16.528 169.365 16.336C168.965 16.128 168.381 16.024 167.613 16.024C167.005 16.024 166.413 16.088 165.837 16.216C165.261 16.344 164.741 16.504 164.277 16.696C164.069 16.552 163.893 16.336 163.749 16.048C163.605 15.744 163.533 15.432 163.533 15.112C163.533 14.696 163.629 14.368 163.821 14.128C164.029 13.872 164.341 13.656 164.757 13.48C165.221 13.304 165.765 13.176 166.389 13.096C167.029 13.016 167.629 12.976 168.189 12.976ZM180.523 24.976C180.363 25.024 180.107 25.072 179.755 25.12C179.419 25.168 179.067 25.192 178.699 25.192C178.347 25.192 178.027 25.168 177.739 25.12C177.467 25.072 177.235 24.976 177.043 24.832C176.851 24.688 176.699 24.496 176.587 24.256C176.491 24 176.443 23.672 176.443 23.272V16.072C176.443 15.704 176.507 15.392 176.635 15.136C176.779 14.864 176.979 14.624 177.235 14.416C177.491 14.208 177.803 14.024 178.171 13.864C178.555 13.688 178.963 13.536 179.395 13.408C179.827 13.28 180.275 13.184 180.739 13.12C181.203 13.04 181.667 13 182.131 13C182.899 13 183.507 13.152 183.955 13.456C184.403 13.744 184.627 14.224 184.627 14.896C184.627 15.12 184.595 15.344 184.531 15.568C184.467 15.776 184.387 15.968 184.291 16.144C183.955 16.144 183.611 16.16 183.259 16.192C182.907 16.224 182.563 16.272 182.227 16.336C181.891 16.4 181.571 16.472 181.267 16.552C180.979 16.616 180.731 16.696 180.523 16.792V24.976ZM192.033 25.384C191.089 25.384 190.209 25.256 189.393 25C188.593 24.728 187.889 24.328 187.281 23.8C186.689 23.272 186.217 22.608 185.865 21.808C185.529 21.008 185.361 20.072 185.361 19C185.361 17.944 185.529 17.04 185.865 16.288C186.217 15.52 186.673 14.896 187.233 14.416C187.793 13.92 188.433 13.56 189.153 13.336C189.873 13.096 190.609 12.976 191.361 12.976C192.209 12.976 192.977 13.104 193.665 13.36C194.369 13.616 194.969 13.968 195.465 14.416C195.977 14.864 196.369 15.4 196.641 16.024C196.929 16.648 197.073 17.328 197.073 18.064C197.073 18.608 196.921 19.024 196.617 19.312C196.313 19.6 195.889 19.784 195.345 19.864L189.417 20.752C189.593 21.28 189.953 21.68 190.497 21.952C191.041 22.208 191.665 22.336 192.369 22.336C193.025 22.336 193.641 22.256 194.217 22.096C194.809 21.92 195.289 21.72 195.657 21.496C195.913 21.656 196.129 21.88 196.305 22.168C196.481 22.456 196.569 22.76 196.569 23.08C196.569 23.8 196.233 24.336 195.561 24.688C195.049 24.96 194.473 25.144 193.833 25.24C193.193 25.336 192.593 25.384 192.033 25.384ZM191.361 15.952C190.977 15.952 190.641 16.016 190.353 16.144C190.081 16.272 189.857 16.44 189.681 16.648C189.505 16.84 189.369 17.064 189.273 17.32C189.193 17.56 189.145 17.808 189.129 18.064L193.233 17.392C193.185 17.072 193.009 16.752 192.705 16.432C192.401 16.112 191.953 15.952 191.361 15.952Z" fill="white"/>
</g>
<defs>
<filter id="filter0_d_205_2" x="-1.49438" y="-0.640449" width="40.9888" height="40.9884" filterUnits="userSpaceOnUse" color-interpolation-filters="sRGB">
<feFlood flood-opacity="0" result="BackgroundImageFix"/>
<feColorMatrix in="SourceAlpha" type="matrix" values="0 0 0 0 0 0 0 0 0 0 0 0 0 0 0 0 0 0 127 0" result="hardAlpha"/>
<feOffset dy="0.853933"/>
<feGaussianBlur stdDeviation="0.747191"/>
<feComposite in2="hardAlpha" operator="out"/>
<feColorMatrix type="matrix" values="0 0 0 0 1 0 0 0 0 1 0 0 0 0 1 0 0 0 0.16 0"/>
<feBlend mode="normal" in2="BackgroundImageFix" result="effect1_dropShadow_205_2"/>
<feBlend mode="normal" in="SourceGraphic" in2="effect1_dropShadow_205_2" result="shape"/>
</filter>
<linearGradient id="paint0_linear_205_2" x1="19" y1="1.25622e-08" x2="19" y2="37.9996" gradientUnits="userSpaceOnUse">
<stop offset="0.553451" stop-color="#40FF47"/>
<stop offset="1" stop-color="#89FFBF"/>
</linearGradient>
<linearGradient id="paint1_linear_205_2" x1="19.0001" y1="2.0933e-05" x2="19.0001" y2="37.9996" gradientUnits="userSpaceOnUse">
<stop offset="0.553451" stop-color="#40FF47"/>
<stop offset="1" stop-color="#89FFBF"/>
</linearGradient>
<linearGradient id="paint2_linear_205_2" x1="19.0001" y1="-3.4197e-05" x2="19.0001" y2="37.9996" gradientUnits="userSpaceOnUse">
<stop offset="0.553451" stop-color="#40FF47"/>
<stop offset="1" stop-color="#89FFBF"/>
</linearGradient>
<linearGradient id="paint3_linear_205_2" x1="19.0001" y1="-3.11038e-05" x2="19.0001" y2="37.9996" gradientUnits="userSpaceOnUse">
<stop offset="0.553451" stop-color="#40FF47"/>
<stop offset="1" stop-color="#89FFBF"/>
</linearGradient>
<linearGradient id="paint4_linear_205_2" x1="19.0001" y1="-2.0296e-06" x2="19.0001" y2="37.9996" gradientUnits="userSpaceOnUse">
<stop offset="0.553451" stop-color="#40FF47"/>
<stop offset="1" stop-color="#89FFBF"/>
</linearGradient>
<clipPath id="clip0_205_2">
<rect width="198" height="38" fill="white"/>
</clipPath>
</defs>
</svg>
